:SAMPLES-PER-SECOND 30
:FULLY-SPECIFIED
:DEGREES
482
root  -66.7733 32.0235 -51.916 -174.767 68.366 168.689
RightUpLeg  -19.6036 0.259761 -0.796803
RightLeg  62.8693 13.3475 21.0893
RightFoot  4.48389 -0.0701498 2.16892
RightToes  -57.0125 -0.366561 -0.38979
Spine  7.94615 -2.51975 -2.26616
Spine1  15.5229 -3.98672 -6.02196
HEad  24.1674 4.18869 9.50186
LeftShoulder1  0 -2.42657e-020 -4.95415e-022
LeftArm  -38.7635 17.9508 -70.3037
LeftForeArm  -152.29 -32.9353 -6.09366
LeftHand  10.6913 -25.1278 -45.9314
RightShoulder  0 2.42657e-020 1.07489e-018
RightArm  -40.921 -23.0072 68.3032
RightForeArm  92.0699 78.8972 114.827
RightHand  5.21745 20.9048 28.1244
LeftUpLeg  -42.4235 -0.290778 0.959266
LeftLeg  31.235 -3.13267 -1.6371
LeftFoot  7.6588 0.0304142 -0.454389
LeftToes  -28.4668 1.18758e-006 1.19596e-007
483
root  -65.6683 32.5202 -52.2289 -173.576 69.1868 170.427
RightUpLeg  -23.1304 -3.29967 -0.2762
RightLeg  62.6603 10.8211 17.257
RightFoot  2.60401 -0.0163259 1.09556
RightToes  -53.5234 -0.334487 -0.378118
Spine  7.92347 -2.76228 -2.27033
Spine1  15.3584 -4.31053 -6.44952
HEad  26.6695 5.43156 9.19776
LeftShoulder1  0 -2.42657e-020 -4.95415e-022
LeftArm  -39.4013 18.1233 -70.2267
LeftForeArm  -153.767 -31.4286 -5.72705
LeftHand  10.8196 -25.4536 -45.8775
RightShoulder  0 2.42657e-020 1.07489e-018
RightArm  -39.546 -19.8014 68.3588
RightForeArm  120.431 74.4655 139.995
RightHand  4.4878 21.9548 23.2174
LeftUpLeg  -38.4347 0.646069 1.61568
LeftLeg  28.6132 -3.31344 -1.54254
LeftFoot  6.92939 0.0252475 -0.417018
LeftToes  -27.6553 1.18758e-006 1.19596e-007
484
root  -64.6317 32.946 -52.5013 -172.009 69.5655 172.311
RightUpLeg  -27.1289 -7.0517 0.842646
RightLeg  61.2753 8.70457 13.3277
RightFoot  0.609787 0.000201219 0.339348
RightToes  -51.031 -0.31204 -0.368595
Spine  7.98638 -2.83138 -2.14677
Spine1  15.2913 -4.25263 -6.70361
HEad  27.864 5.93729 9.23588
LeftShoulder1  0 -2.42657e-020 -4.95415e-022
LeftArm  -38.6945 16.5348 -70.29
LeftForeArm  -154.225 -29.8854 -5.36403
LeftHand  10.8641 -25.7189 -45.6086
RightShoulder  0 2.42657e-020 1.07489e-018
RightArm  -38.769 -15.2354 69.0324
RightForeArm  137.066 69.6113 151.156
RightHand  3.94753 22.7067 19.8535
LeftUpLeg  -34.5745 1.15001 2.3372
LeftLeg  25.3306 -3.36815 -1.33891
LeftFoot  6.64934 0.022564 -0.388428
LeftToes  -27.6146 1.18758e-006 1.19596e-007
485
root  -63.6389 33.2333 -52.6905 -170.033 69.6586 174.726
RightUpLeg  -31.2304 -9.85803 2.47162
RightLeg  59.1956 8.8918 12.6092
RightFoot  -1.56371 -0.00837102 -0.235958
RightToes  -50.9417 -0.311244 -0.368235
Spine  8.0832 -2.71825 -1.86438
Spine1  15.2403 -3.85105 -6.62913
HEad  29.1695 6.04981 9.06161
LeftShoulder1  0 -2.42657e-020 -4.95415e-022
LeftArm  -37.0886 13.7519 -70.6541
LeftForeArm  -153.64 -28.5627 -5.06204
LeftHand  10.8673 -25.9751 -45.2045
RightShoulder  0 2.42657e-020 1.07489e-018
RightArm  -36.7181 -9.30389 69.7305
RightForeArm  147.323 66.3912 155.717
RightHand  3.43828 23.6922 16.6609
LeftUpLeg  -31.1954 2.45549 3.12524
LeftLeg  22.7533 -4.48444 -1.55113
LeftFoot  6.09971 0.0228599 -0.465853
LeftToes  -27.8077 1.18758e-006 1.19596e-007
486
root  -62.6673 33.3437 -52.8694 -168.853 69.4977 176.367
RightUpLeg  -35.3403 -11.9341 3.75944
RightLeg  56.1064 9.34194 11.8542
RightFoot  -3.43877 -0.0326187 -0.709203
RightToes  -51.6121 -0.317237 -0.370902
Spine  8.27066 -2.5046 -1.60487
Spine1  15.3222 -3.31057 -6.46344
HEad  30.5692 5.88478 8.69668
LeftShoulder1  0 -2.42657e-020 -4.95415e-022
LeftArm  -34.6215 10.3192 -71.2561
LeftForeArm  -153.129 -28.3061 -5.00449
LeftHand  10.8076 -26.1803 -44.6542
RightShoulder  0 2.42657e-020 1.07489e-018
RightArm  -32.9572 -2.52601 70.2419
RightForeArm  152.679 65.0139 157.285
RightHand  3.05969 24.2605 14.5399
LeftUpLeg  -28.8294 3.71523 3.73165
LeftLeg  22.0229 -5.9035 -1.95549
LeftFoot  4.91575 0.0187354 -0.49027
LeftToes  -28.6063 1.18758e-006 1.19596e-007
